<?xml version="1.0" encoding="UTF-8"?>
<svg id="Layer_2" data-name="Layer 2" xmlns="http://www.w3.org/2000/svg" viewBox="0 0 1508.22 692.73">
  <defs>
    <style>
      .cls-1, .cls-2, .cls-3 {
        fill: #c49e55;
      }

      .cls-2 {
        font-family: JetBrainsMonoNL-ExtraBold, 'JetBrains Mono NL';
      }

      .cls-2, .cls-3 {
        font-size: 41.18px;
        font-weight: 700;
      }

      .cls-3 {
        font-family: JetBrainsMono-ExtraBold, 'JetBrains Mono';
      }
    </style>
  </defs>
  <g id="Layer_1-2" data-name="Layer 1">
    <g>
      <path class="cls-1" d="M1041.49,515.55l-287.69,177.18-287.82-177.44-.07-337.08,135.96-83.76L754.2,0l149.9,93.32,137.09,84.3.29,337.93ZM1008.26,497.42l-.21-301.79-253.87-156.42-254.71,156.86-.03,301.31,254.73,156.7,86.8-53.02,167.3-103.65Z"/>
      <path class="cls-1" d="M1465.31,518.34c3.97-2.44,7.43-4.14,9.06-6.29,2.24-2.97-.18-10.27-.18-14.09l-.25-299.39-141.13-89.26-83.46-51.59-135.87,83.37-37.12,21.62c-10.29-6.27-18.06-11.18-29.1-19.62l202.6-125.38,258.01,162.76.37,349.83-255.34,157.49-211.87-133.87,31.39-19.43,180.77,114.49,212.15-130.63Z"/>
      <path class="cls-1" d="M1412.05,476.49l-159.33,99.22-146.66-93.29c-1.37-5.93,2.2-12.16,7.82-15.77l139.22,87.61,131.16-81.98-149.44-89.39-131.47-79.23.11-82.3,149-92.49,104.9,66.66,55.55,35.88-.02,84.24c-4.45,3.02-11.22,2.96-17.73,1.26l-.36-76.02-142.37-90.53-131.04,81.33-1.38,48.78,290.92,175.14c2.57,5.97,2.48,13.01,1.12,20.89Z"/>
      <path class="cls-1" d="M33.52,512.58l221.46,136.3,181.11-114.91c11.22,5.65,19.6,11.04,30.34,19.72l-107.13,68.44-103.77,65.48L0,530.84.08,180.59,258.3,17.85l203.35,126.01-29.98,20.25-71.43-43.91-102.11-62.47-149.58,93.43-74.87,47.46-.16,313.97Z"/>
      <path class="cls-1" d="M95.44,476.36l-.95-86.36c5.57-.94,11.76-1.27,18.37-1.09l-.08,76.93,29.03,17.93,113.49,70.73,131.39-83.07-.41-50.67L97.1,248.08l-1.79-17.03,160.07-101.95,35.96,21.55,111.91,70.29c-1.34,6.47-4.66,11.7-10.08,14.96l-137.84-85.48-128.79,82.64,106.93,63.23,171.46,102.01.26,82.7-150.07,95.04-159.69-99.68Z"/>
      <path class="cls-1" d="M945.96,463.91l-191.97,118.01-194.06-118.92-.43-84.82c5.58-.95,10.73-1.2,17.85-.98l.28,75.53,176.64,108.07,162.75-100.95-356.22-212.51c-1.04-5.41-1.25-10.91-.73-16.82l193.97-120.67,194.03,120.76.59,86.21-18.07.1-.82-76.68-176.03-108.7-161.87,100.98,353.53,210.96c3.5,5.78,4.95,14.94.56,20.43Z"/>
      <text class="cls-2" transform="translate(578.83 527.04) rotate(31.66)"><tspan x="0" y="0">SSS-2</tspan></text>
      <text class="cls-3" transform="translate(92.01 527.04) rotate(31.66)"><tspan x="0" y="0">SSS-1</tspan></text>
      <text class="cls-3" transform="translate(1103.36 534.74) rotate(31.66)"><tspan x="0" y="0">SSS-3</tspan></text>
    </g>
  </g>
</svg>